<svg width="136" height="36" viewBox="0 0 136 36" fill="none" xmlns="http://www.w3.org/2000/svg">
<g clip-path="url(#clip0_287_1255)">
<path d="M24.7361 7.56853C22.5495 8.31357 21.4966 9.64989 20.7793 11.7312C20.5942 12.287 20.1314 12.902 19.6108 13.3159L21.4041 15.279L15.7117 11.2109L0 0C0 0 1.13384 7.52123 1.52721 10.2885C1.80488 12.2397 2.27925 13.1148 3.78331 14.0018L4.38495 14.3329L6.97658 15.7284L5.4378 14.9124L12.5416 18.874L12.4954 18.9805L4.84773 15.3618C5.25269 16.7809 6.03941 19.5126 6.37494 20.7189C6.73361 22.0197 7.13855 22.4927 8.37652 22.9541L10.6558 23.8055L12.0673 23.2378L10.274 24.4559L1.30738 36.0806C7.26582 30.4279 12.3102 28.4175 16.001 26.7737C20.7099 24.6924 23.5445 23.3561 25.3956 18.5547C26.7146 15.1844 27.7442 10.868 29.0518 9.2005L31.8401 5.55815C31.8401 5.55815 26.0666 7.11916 24.7361 7.56853Z" fill="#ffffff"/>
</g>
<defs>
<clipPath id="clip0_287_1255">
<rect width="136" height="36" fill="white"/>
</clipPath>
</defs>
</svg>
